<?xml version="1.0" encoding="utf-8"?>
<!-- Generator: Adobe Illustrator 24.1.0, SVG Export Plug-In . SVG Version: 6.00 Build 0)  -->
<svg version="1.1" id="圖層_1" xmlns="http://www.w3.org/2000/svg" xmlns:xlink="http://www.w3.org/1999/xlink" x="0px" y="0px"
	 viewBox="0 0 512 512" style="enable-background:new 0 0 512 512;" xml:space="preserve">
<style type="text/css">
	.st0{fill:#3ECF8E;}
	.st1{fill:#FFFFFF;}
</style>
<rect y="0" class="st0" width="512" height="512"/>
<path class="st1" d="M231.6,121.2c11.8,35.5-0.2,71.3-27,80s-58-12.9-69.8-48.4s0.2-71.3,27-80S219.8,85.7,231.6,121.2z
	 M127.4,208.6c15.6,26.8,11.8,58-8.4,69.5s-49.4-0.7-64.9-27.5s-11.9-58,8.3-69.5C82.6,169.4,111.7,181.8,127.4,208.6L127.4,208.6z
	 M101.6,376C144.9,259.2,221.9,229.5,256,229.5S367.1,259.2,410.4,376c3,8,4.3,16.6,4.3,25.2v1.3c0,21.3-17.3,38.6-38.6,38.6
	c-9.5,0-18.9-1.2-28.1-3.5l-72.8-18.2c-12.6-3.1-25.9-3.1-38.5,0L164,437.7c-9.2,2.3-18.6,3.5-28.1,3.5c-21.3,0-38.6-17.3-38.6-38.6
	v-1.3C97.3,392.7,98.6,384.1,101.6,376L101.6,376z M393.1,278.1c-20.3-11.6-24.1-42.7-8.4-69.5c15.6-26.8,44.6-39.1,64.9-27.5
	c20.3,11.6,24.1,42.7,8.4,69.5C442.3,277.3,413.3,289.7,393.1,278.1L393.1,278.1z M300.7,201.2c-26.7-8.8-38.8-44.6-27-80
	c11.8-35.5,43.1-57.1,69.8-48.4s38.8,44.6,27,80S327.4,210,300.7,201.2z"/>
</svg>
